# xmcd
#
# Track frame offsets:
#	182
#	187965
#	226825
#	279892
#	326870
#
# Disc length: 4653 seconds
# Revision: 0
# Processed by: cddbd v1.5.2PL0 Copyright (c) Steve Scherf et al.
# Submitted via: dBpowerAMP V12.0
#
DISCID=3a122b05
DTITLE=Ud. Bismillah Khan - Raga Puriya, Thumri and Traditional Drums
DYEAR=1900
DGENRE=Country
TTITLE0=Raga Puriya - Alap, Vilambit Ektal, Drut Teentaal
TTITLE1=Thumri in Raga Khamaj - Dadra, Keherva
TTITLE2=Dhun in Raga Shivranjani
TTITLE3=Banarasi Dhun - Keherva tal
TTITLE4=Ud. Bismillah Khan - speech
EXTD=
EXTT0=
EXTT1=
EXTT2=
EXTT3=
EXTT4=
PLAYORDER=
